<svg width="512" height="512" viewBox="0 0 512 512" fill="none" xmlns="http://www.w3.org/2000/svg" xmlns:xlink="http://www.w3.org/1999/xlink" class=""><rect id="r4" width="512" height="512" x="0" y="0" rx="128" fill="url(#r5)" stroke="#FFFFFF" stroke-width="0" stroke-opacity="100%" paint-order="stroke"></rect><clipPath id="clip"><use xlink:href="#r4"></use></clipPath><defs><linearGradient id="r5" gradientUnits="userSpaceOnUse" gradientTransform="rotate(180)" style="transform-origin: center center;"><stop stop-color="#68AEFF"></stop><stop offset="1" stop-color="#003EB7"></stop></linearGradient><radialGradient id="r6" cx="0" cy="0" r="1" gradientUnits="userSpaceOnUse" gradientTransform="translate(256) rotate(90) scale(512)"><stop stop-color="white"></stop><stop offset="1" stop-color="white" stop-opacity="0"></stop></radialGradient></defs><svg viewBox="0 0 16 16" fill="none" xmlns="http://www.w3.org/2000/svg" width="352" height="352" x="80" y="80" alignment-baseline="middle" style="color: rgb(255, 255, 255);"><path d="M8 5.75H5.75a2 2 0 0 1-2-2v0a2 2 0 0 1 2-2h.125C7.049 1.75 8 2.701 8 3.875V5.75Zm0 0h2.25a2 2 0 1 0 0-4h-.125A2.125 2.125 0 0 0 8 3.875V5.75Zm0 0v8.5m-6.25-8.5h1m0 0h10.5m-10.5 0v6.5a2 2 0 0 0 2 2h6.5a2 2 0 0 0 2-2v-6.5m0 0h1" stroke="currentColor" stroke-width="1.5" stroke-linecap="round" stroke-linejoin="round"></path></svg></svg>